HIERARCHY
ROOT hip
{
  OFFSET -1.8077 107.924 4.85108
  CHANNELS 6 Xposition Yposition Zposition Zrotation Xrotation Yrotation
  JOINT rButtock
  {
    OFFSET -4.19761 -0.599656 -0.299829
    CHANNELS 3 Zrotation Xrotation Yrotation
    JOINT rThigh
    {
      OFFSET 0 -1.49915 0
      CHANNELS 3 Zrotation Xrotation Yrotation
      JOINT rShin
      {
        OFFSET 0.699602 -17.6899 -1.09938
        CHANNELS 3 Zrotation Xrotation Yrotation
        JOINT rFoot
        {
          OFFSET -0.699602 -18.0897 -0.699602
          CHANNELS 3 Zrotation Xrotation Yrotation
          End Site
          {
            OFFSET 0 -2.09881 5.59681
          }
        }
      }
    }
  }
  JOINT abdomen
  {
    OFFSET 0 6.09653 0.699602
    CHANNELS 3 Zrotation Xrotation Yrotation
    JOINT chest
    {
      OFFSET 0 2.49857 -0.699602
      CHANNELS 3 Zrotation Xrotation Yrotation
      JOINT rCollar
      {
        OFFSET -1.49915 11.2936 -1.69903
        CHANNELS 3 Zrotation Xrotation Yrotation
        JOINT rShldr
        {
          OFFSET -4.89721 -0.299829 0.799545
          CHANNELS 3 Zrotation Xrotation Yrotation
          JOINT rForeArm
          {
            OFFSET -12.4216 -1.19922 0.931564
            CHANNELS 3 Zrotation Xrotation Yrotation
            JOINT rHand
            {
              OFFSET -9.86568 0.0998477 3.66582
              CHANNELS 3 Zrotation Xrotation Yrotation
              JOINT rRing1
              {
                OFFSET -3.39807 0.399775 0.299829
                CHANNELS 3 Zrotation Xrotation Yrotation
                JOINT rRing2
                {
                  OFFSET -1.29926 -0.199888 0.399772
                  CHANNELS 3 Zrotation Xrotation Yrotation
                  End Site
                  {
                    OFFSET -0.899487 -0.0999402 0.199886
                  }
                }
              }
              JOINT rMid1
              {
                OFFSET -2.99829 0.499717 1.09937
                CHANNELS 3 Zrotation Xrotation Yrotation
                JOINT rMid2
                {
                  OFFSET -1.45827 -0.0999391 0.600149
                  CHANNELS 3 Zrotation Xrotation Yrotation
                  End Site
                  {
                    OFFSET -1.0403 -0.0999474 0.399282
                  }
                }
              }
              JOINT rIndex1
              {
                OFFSET -2.69847 0.399775 2.09881
                CHANNELS 3 Zrotation Xrotation Yrotation
                JOINT rIndex2
                {
                  OFFSET -1.33823 -0.200883 0.6843
                  CHANNELS 3 Zrotation Xrotation Yrotation
                  End Site
                  {
                    OFFSET -0.760569 0.00099747 0.415074
                  }
                }
              }
              JOINT rThumb1
              {
                OFFSET -0.399773 -0.39977 1.19932
                CHANNELS 3 Zrotation Xrotation Yrotation
                JOINT rThumb2
                {
                  OFFSET -0.998132 0 1.47145
                  CHANNELS 3 Zrotation Xrotation Yrotation
                  End Site
                  {
                    OFFSET -0.977841 -0.278837 0.829828
                  }
                }
              }
              JOINT rPinky1
              {
                OFFSET -3.29812 0.0999423 -0.399772
                CHANNELS 3 Zrotation Xrotation Yrotation
                JOINT rPinky2
                {
                  OFFSET -0.899492 -0.0999405 0
                  CHANNELS 3 Zrotation Xrotation Yrotation
                  End Site
                  {
                    OFFSET -0.999429 -0.0999421 0
                  }
                }
              }
            }
          }
        }
      }
      JOINT lCollar
      {
        OFFSET 1.49915 11.2936 -1.69903
        CHANNELS 3 Zrotation Xrotation Yrotation
        JOINT lShldr
        {
          OFFSET 4.89721 -0.299833 0.799545
          CHANNELS 3 Zrotation Xrotation Yrotation
          JOINT lForeArm
          {
            OFFSET 12.4216 -1.19922 0.931564
            CHANNELS 3 Zrotation Xrotation Yrotation
            JOINT lHand
            {
              OFFSET 9.86568 0.0998482 3.66582
              CHANNELS 3 Zrotation Xrotation Yrotation
              JOINT lRing1
              {
                OFFSET 3.39806 0.399773 0.299829
                CHANNELS 3 Zrotation Xrotation Yrotation
                JOINT lRing2
                {
                  OFFSET 1.29926 -0.199886 0.399772
                  CHANNELS 3 Zrotation Xrotation Yrotation
                  End Site
                  {
                    OFFSET 0.899489 -0.0999425 0.199886
                  }
                }
              }
              JOINT lThumb1
              {
                OFFSET 0.399772 -0.399773 1.19932
                CHANNELS 3 Zrotation Xrotation Yrotation
                JOINT lThumb2
                {
                  OFFSET 0.99813 0 1.47145
                  CHANNELS 3 Zrotation Xrotation Yrotation
                  End Site
                  {
                    OFFSET 0.97784 -0.27884 0.829828
                  }
                }
              }
              JOINT lMid1
              {
                OFFSET 2.99829 0.499714 1.09937
                CHANNELS 3 Zrotation Xrotation Yrotation
                JOINT lMid2
                {
                  OFFSET 1.45827 -0.0999388 0.600149
                  CHANNELS 3 Zrotation Xrotation Yrotation
                  End Site
                  {
                    OFFSET 1.04031 -0.0999473 0.399282
                  }
                }
              }
              JOINT lPinky1
              {
                OFFSET 3.29812 0.0999421 -0.399772
                CHANNELS 3 Zrotation Xrotation Yrotation
                JOINT lPinky2
                {
                  OFFSET 0.899488 -0.0999427 0
                  CHANNELS 3 Zrotation Xrotation Yrotation
                  End Site
                  {
                    OFFSET 0.999427 -0.0999418 0
                  }
                }
              }
              JOINT lIndex1
              {
                OFFSET 2.69846 0.399775 2.09881
                CHANNELS 3 Zrotation Xrotation Yrotation
                JOINT lIndex2
                {
                  OFFSET 1.33823 -0.200884 0.6843
                  CHANNELS 3 Zrotation Xrotation Yrotation
                  End Site
                  {
                    OFFSET 0.760567 0.00099574 0.415074
                  }
                }
              }
            }
          }
        }
      }
      JOINT neck
      {
        OFFSET 0 12.4929 -0.499715
        CHANNELS 3 Zrotation Xrotation Yrotation
        JOINT head
        {
          OFFSET 0 3.59795 0.299829
          CHANNELS 3 Zrotation Xrotation Yrotation
          JOINT leftEye
          {
            OFFSET 1.19932 3.69789 3.19818
            CHANNELS 3 Zrotation Xrotation Yrotation
            End Site
            {
              OFFSET 0 0 0
            }
          }
          JOINT rightEye
          {
            OFFSET -1.19932 3.69789 3.19818
            CHANNELS 3 Zrotation Xrotation Yrotation
            End Site
            {
              OFFSET 0 0 0
            }
          }
        }
      }
    }
  }
  JOINT lButtock
  {
    OFFSET 4.19761 -0.599656 -0.299829
    CHANNELS 3 Zrotation Xrotation Yrotation
    JOINT lThigh
    {
      OFFSET 0 -1.49914 0
      CHANNELS 3 Zrotation Xrotation Yrotation
      JOINT lShin
      {
        OFFSET -0.699602 -17.6899 -1.09937
        CHANNELS 3 Zrotation Xrotation Yrotation
        JOINT lFoot
        {
          OFFSET 0.699602 -18.0897 -0.699602
          CHANNELS 3 Zrotation Xrotation Yrotation
          End Site
          {
            OFFSET 0 -2.0988 5.59681
          }
        }
      }
    }
  }
}
MOTION
Frames:	6
Frame Time:	0.0333333
-1.8077 107.924 4.85108 0.00647017 0.0350611 -27.4026 -0.00975517 -0.00969887 -0.00983547 3.39899 -1.34721 -34.9275 -0.0582422 9.09473 -1.53696 -3.30733 -8.83829 0.21517 -0.00975517 -0.00975351 -0.00975351 0.83254 -1.28026 3.92512 13.0976 1.88967 8.94504 63.2028 -0.0830864 -7.02098 -16.9498 15.5494 38.2163 19.0055 1.63449 -29.3869 1.84463 1.02332 28.0095 2.42704 -0.497593 4.4329 1.84571 1.02832 28.013 -0.243675 0.394432 1.44876 1.84104 1.04198 28.023 8.61171 -0.00190223 -1.79828 1.8765 1.0053 28.0257 -9.40282 -7.91099 -0.69994 1.83969 1.02684 28.0275 0.629425 -0.00953167 -0.000952463 -10.7678 -0.612205 14.789 -65.9584 -29.3516 0.555784 21.6028 26.2759 -29.8349 -22.9504 4.79499 16.6647 -1.90892 1.07501 -28.0899 -2.42835 -0.502432 -4.4324 -1.87818 1.06148 -28.0917 9.40787 -7.94586 0.599069 -1.91292 1.08254 -28.0857 0.181555 0.424301 -1.45108 -1.89063 1.08193 -28.0686 -0.629806 -0.00995832 0.0010087 -1.90214 1.09713 -28.0878 -8.62278 -0.0233157 1.79819 -0.76207 1.32646 -3.98192 1.54179 -1.0361 3.6913 0 0 0 0 0 0 -0.00975517 -0.00983547 -0.00969887 -1.72911 -14.1561 33.9454 -0.0699209 6.41237 -0.90611 9.26532 4.44983 -0.545159 
-1.56383 107.839 4.60915 1.25634 0.191762 -29.375 -0.00975517 -0.00969887 -0.00983547 2.62382 -2.15475 -33.1729 -0.0565758 8.30417 -1.3296 -4.87832 -7.35982 0.16 -0.00975517 -0.00975351 -0.00975351 0.0517523 -0.968352 4.98017 12.3501 1.93232 10.2625 63.3616 -0.562603 -6.79537 -16.9351 15.0777 39.0018 19.0717 1.59 -29.6739 1.84463 1.02332 28.0095 2.42704 -0.497593 4.4329 1.84571 1.02832 28.013 -0.243675 0.394432 1.44876 1.84104 1.04198 28.023 8.61171 -0.00190223 -1.79828 1.8765 1.0053 28.0257 -9.40282 -7.91099 -0.69994 1.83969 1.02684 28.0275 0.629425 -0.00953167 -0.000952463 -11.1015 -0.68022 15.2537 -66.4828 -29.441 0.278298 21.4734 25.0283 -31.0011 -23.1388 4.60084 17.7233 -1.90892 1.07501 -28.0899 -2.42835 -0.502432 -4.4324 -1.87818 1.06148 -28.0917 9.40787 -7.94586 0.599069 -1.91292 1.08254 -28.0857 0.181555 0.424301 -1.45108 -1.89063 1.08193 -28.0686 -0.629804 -0.00995832 0.0010087 -1.90214 1.09713 -28.0878 -8.62278 -0.0233157 1.79819 -0.989297 1.05366 -5.04594 1.54179 -1.0361 3.6913 0 0 0 0 0 0 -0.00975517 -0.00983547 -0.00969887 -2.52944 -15.0655 37.4804 -0.0690938 6.07177 -0.867613 9.66989 5.115 -0.606824 
-1.44402 107.793 4.53001 1.78364 0.543474 -30.0193 -0.00975517 -0.00969887 -0.00983547 2.28948 -2.90616 -33.3772 -0.0162902 8.22362 -0.415242 -5.93919 -7.19444 0.134852 -0.00975517 -0.00975351 -0.00975351 -0.143308 -1.18336 5.31221 12.1641 1.95815 10.7346 63.456 -1.28574 -6.87515 -16.0152 14.2789 39.2648 18.9997 1.36797 -30.8816 1.84463 1.02332 28.0095 2.42705 -0.497593 4.4329 1.84571 1.02832 28.013 -0.243675 0.394432 1.44876 1.84104 1.04198 28.023 8.61171 -0.00190223 -1.79828 1.8765 1.0053 28.0257 -9.40282 -7.91099 -0.69994 1.83969 1.02683 28.0275 0.629425 -0.00953167 -0.000952463 -11.3022 -0.715384 15.4706 -66.285 -28.6458 0.391912 21.463 24.4816 -31.588 -23.2753 4.5404 18.1233 -1.90892 1.07501 -28.0899 -2.42835 -0.502432 -4.4324 -1.87818 1.06148 -28.0917 9.40787 -7.94586 0.599069 -1.91292 1.08254 -28.0857 0.181555 0.424301 -1.45108 -1.89063 1.08193 -28.0686 -0.629799 -0.00995832 0.0010087 -1.90214 1.09713 -28.0878 -8.62278 -0.0233157 1.79819 -1.03671 1.27195 -5.35026 1.54179 -1.0361 3.6913 0 0 0 0 0 0 -0.00975517 -0.00983547 -0.00969887 -2.79835 -15.8503 37.4029 -0.0387213 6.11735 -0.18263 10.3378 5.15093 -0.664327 
-1.46338 107.897 4.62923 0.397027 -0.0916605 -28.4182 -0.00975517 -0.00969887 -0.00983547 3.19944 -1.70173 -33.5189 -0.0770724 8.55992 -1.97188 -6.10818 -7.55982 0.125371 -0.00975517 -0.00975351 -0.00975351 0.48102 -0.548128 4.46257 12.5677 1.92613 9.91404 63.4789 -0.241649 -6.87223 -16.0547 14.9263 38.1552 18.751 1.45016 -30.287 1.84463 1.02332 28.0095 2.42705 -0.497593 4.4329 1.84571 1.02832 28.013 -0.243675 0.394432 1.44876 1.84104 1.04198 28.023 8.61172 -0.00190223 -1.79828 1.8765 1.0053 28.0257 -9.40282 -7.91099 -0.69994 1.83969 1.02683 28.0275 0.629425 -0.00953167 -0.000952463 -11.0508 -0.651706 15.0207 -66.2359 -30.5584 0.110069 21.9001 26.0999 -30.3731 -23.3504 4.76437 17.1963 -1.90892 1.07501 -28.0899 -2.42835 -0.502432 -4.4324 -1.87818 1.06148 -28.0917 9.40787 -7.94586 0.599069 -1.91292 1.08254 -28.0857 0.181555 0.424301 -1.45108 -1.89063 1.08193 -28.0686 -0.629792 -0.00995832 0.0010087 -1.90214 1.09713 -28.0878 -8.62278 -0.0233157 1.79819 -0.86743 0.599183 -4.53876 1.54179 -1.0361 3.6913 0 0 0 0 0 0 -0.00975517 -0.00983547 -0.00969887 -2.18623 -14.4017 37.0669 -0.0894094 6.04455 -1.45917 9.69646 5.16456 -0.611307 
-1.37714 107.884 4.60451 0.465404 0.0547616 -28.1446 -0.00975517 -0.00969887 -0.00983547 3.04645 -1.83597 -33.7892 -0.0772537 8.59809 -1.96305 -4.67 -7.82949 0.164401 -0.00975517 -0.00975351 -0.00975351 0.422427 -0.626259 4.41373 12.589 1.89098 9.60904 63.5106 -0.174661 -6.78834 -16.3338 15.1557 38.1117 18.8697 1.50205 -30.0569 1.84463 1.02332 28.0095 2.42706 -0.497593 4.4329 1.84571 1.02832 28.013 -0.243675 0.394432 1.44876 1.84104 1.04198 28.023 8.61172 -0.00190223 -1.79828 1.8765 1.0053 28.0257 -9.40282 -7.91099 -0.69994 1.83969 1.02683 28.0275 0.629425 -0.00953167 -0.000952463 -11.0599 -0.646663 14.971 -66.1735 -30.5749 0.190159 21.8933 25.8729 -30.6017 -23.164 4.65005 17.5266 -1.90892 1.07501 -28.0899 -2.42835 -0.502432 -4.4324 -1.87818 1.06148 -28.0917 9.40787 -7.94586 0.599069 -1.91292 1.08254 -28.0857 0.181555 0.424301 -1.45108 -1.89063 1.08193 -28.0686 -0.629782 -0.00995832 0.0010087 -1.90214 1.09713 -28.0878 -8.62278 -0.0233157 1.79819 -0.784032 0.676999 -4.49945 1.54179 -1.0361 3.6913 0 0 0 0 0 0 -0.00975517 -0.00983547 -0.00969887 -2.32373 -14.665 36.8361 -0.0893981 5.99284 -1.48396 9.95114 5.41739 -0.64478 
-1.30566 107.88 4.58535 0.357985 0.0449866 -28.1056 -0.00975517 -0.00969887 -0.00983547 3.14403 -1.93695 -34.07 -0.067699 8.634 -1.81091 -6.34049 -7.45844 0.120674 -0.00975517 -0.00975351 -0.00975351 0.41261 -0.538359 4.3747 12.6844 1.94395 9.89645 63.508 -0.577808 -7.05504 -16.0752 14.8341 38.3448 18.6879 1.42126 -30.418 1.84463 1.02332 28.0095 2.42706 -0.497593 4.4329 1.84571 1.02832 28.013 -0.243675 0.394432 1.44876 1.84104 1.04198 28.023 8.61173 -0.00190223 -1.79828 1.8765 1.0053 28.0257 -9.40282 -7.91099 -0.69994 1.83969 1.02683 28.0275 0.629425 -0.00953167 -0.000952463 -11.0649 -0.650829 15.0063 -65.9935 -30.7561 0.302751 22.3222 26.0668 -30.9064 -23.3178 4.73214 17.3081 -1.90892 1.07501 -28.0899 -2.42835 -0.502432 -4.4324 -1.87818 1.06148 -28.0917 9.40787 -7.94586 0.599069 -1.91292 1.08254 -28.0857 0.181555 0.424301 -1.45108 -1.89063 1.08193 -28.0686 -0.629769 -0.00995832 0.0010087 -1.90214 1.09713 -28.0878 -8.62278 -0.0233157 1.79819 -0.688506 0.588634 -4.44438 1.54179 -1.0361 3.6913 0 0 0 0 0 0 -0.00975517 -0.00983547 -0.00969887 -2.29416 -14.6799 36.6017 -0.0794888 6.02379 -1.2603 9.90734 5.50963 -0.645409 
